<svg id="Capa_1" enable-background="new 0 0 512 512" height="512" viewBox="0 0 512 512" width="512" xmlns="http://www.w3.org/2000/svg"><g><path d="m382.109 196.182-224.83-57.128c-10.603-3.042-21.274 7.632-18.232 18.233l57.142 224.816c1.49 5.862 6.355 10.255 12.338 11.142.737.109 1.474.163 2.204.163 5.197 0 10.095-2.707 12.836-7.246l33.055-54.731 39.091 30.503c18.75 14.631 45.575 12.983 62.392-3.835 16.819-16.818 18.468-43.641 3.836-62.392l-30.503-39.092 54.731-33.055c5.178-3.127 7.97-9.058 7.083-15.04-.887-5.983-5.281-10.848-11.143-12.338zm-80.65 43.493c-3.671 2.217-6.218 5.9-6.996 10.118s.286 8.567 2.925 11.949l40.903 52.421c5.329 6.83 4.728 16.598-1.397 22.724-6.128 6.126-15.896 6.725-22.724 1.397l-52.419-40.902c-2.656-2.073-5.909-3.174-9.227-3.174-.905 0-1.817.082-2.722.249-4.218.778-7.9 3.325-10.118 6.996l-23.253 38.5-42.093-165.611 165.62 42.083z"/><path d="m96.001.002h-80.994c-8.053-.151-15.156 6.952-15.005 15.005v80.994c0 8.284 6.716 15 15 15s15-6.716 15-15v-44.786l50.981 50.981c2.929 2.929 6.768 4.394 10.606 4.394s7.678-1.464 10.606-4.394c5.858-5.858 5.858-15.355 0-21.213l-50.98-50.981h44.787c8.284 0 15-6.716 15-15s-6.716-15-15.001-15z"/><path d="m415.999 30.002h44.787l-50.981 50.981c-5.858 5.858-5.858 15.355 0 21.213 2.929 2.929 6.768 4.394 10.606 4.394s7.678-1.464 10.606-4.394l50.981-50.981v44.787c0 8.284 6.716 15 15 15s15-6.716 15-15v-80.995c.151-8.054-6.952-15.156-15.005-15.005h-80.994c-8.284 0-15 6.716-15 15s6.715 15 15 15z"/><path d="m96.001 481.998h-44.786l50.981-50.981c5.858-5.858 5.858-15.355 0-21.213-5.857-5.858-15.355-5.858-21.213 0l-50.981 50.981v-44.787c0-8.284-6.716-15-15-15s-15 6.716-15 15v80.994c-.151 8.052 6.948 15.153 15 15.005h80.999c8.284 0 15-6.716 15-15 0-8.283-6.715-14.999-15-14.999z"/><path d="m509.471 505.326c1.626-2.458 2.525-5.383 2.526-8.333v-80.994c0-8.284-6.716-15-15-15s-15 6.716-15 15v44.787l-50.981-50.981c-5.857-5.858-15.355-5.858-21.213 0s-5.858 15.355 0 21.213l50.981 50.98h-44.786c-8.284 0-15 6.716-15 15s6.716 15 15 15h80.999c4.933.017 9.755-2.555 12.474-6.672z"/><path d="m176.227 30.002h159.545c8.284 0 15-6.716 15-15s-6.716-15-15-15h-159.545c-8.284 0-15 6.716-15 15s6.716 15 15 15z"/><path d="m335.773 481.998h-159.546c-8.284 0-15 6.716-15 15s6.716 15 15 15h159.545c8.284 0 15-6.716 15-15 .001-8.284-6.715-15-14.999-15z"/><path d="m15.002 350.773c8.284 0 15-6.716 15-15v-159.546c0-8.284-6.716-15-15-15s-15 6.716-15 15v159.545c0 8.285 6.716 15.001 15 15.001z"/><path d="m496.998 161.227c-8.284 0-15 6.716-15 15v159.545c0 8.284 6.716 15 15 15s15-6.716 15-15v-159.545c0-8.284-6.716-15-15-15z"/></g></svg>